<?xml version="1.0" encoding="UTF-8" standalone="no"?>
<svg
   width="1em"
   height="1em"
   viewBox="0 0 24 24"
   version="1.1"
   id="svg1086"
   xmlns="http://www.w3.org/2000/svg"
   xmlns:svg="http://www.w3.org/2000/svg">
  <defs
     id="defs1090" />
  <path
     fill="currentColor"
     d="m12 13.4l-4.9 4.9q-.275.275-.7.275t-.7-.275q-.275-.275-.275-.7t.275-.7l4.9-4.9l-4.9-4.9q-.275-.275-.275-.7t.275-.7q.275-.275.7-.275t.7.275l4.9 4.9l4.9-4.9q.275-.275.7-.275t.7.275q.275.275.275.7t-.275.7L13.4 12l4.9 4.9q.275.275.275.7t-.275.7q-.275.275-.7.275t-.7-.275L12 13.4Z"
     id="path1084"
     style="fill:#ffffff;fill-opacity:1" />
</svg>
